# xmcd CD database file
#
# Track frame offsets:
#	150
#	11617
#	21536
#	31453
#	45055
#	56548
#	65607
#	76965
#	86504
#	97604
#	107910
#	117998
#	130056
#	141189
#	153652
#	166432
#	178522
#	190832
#	202158
#	212283
#	223688
#	235911
#	245865
#	257398
#
# Disc length: 3570 seconds
#
# Revision: 2
# Processed by: cddbd v1.5.2PL0 Copyright (c) Steve Scherf et al.
# Submitted via: CDex 1.77
#
DISCID=4a0df018
DTITLE=Hank Thompson - Seven classic albums cd4
DYEAR=2014
DGENRE=Country
TTITLE0=Shenandoah waltz
TTITLE1=Wednesday waltz
TTITLE2=Signed sealed and delivered
TTITLE3=Skater's waltz
TTITLE4=The warm red wine
TTITLE5=Fifty year ago waltz
TTITLE6=In the valley of the moon
TTITLE7=La zinda waltz
TTITLE8=Let me call you sweetheart
TTITLE9=The anniversary waltz
TTITLE10=What will i do next monday
TTITLE11=Gold and silver waltz
TTITLE12=Swing wide your gate of love (single 1946)
TTITLE13=Whoa sailor (single 1946)
TTITLE14=California women (single 1946)
TTITLE15=What are we gonna do about the moonlight (single 1946)
TTITLE16=A lonely heart knows (single 1947)
TTITLE17=Starry eyed texas gal (single 1947)
TTITLE18=Wake up Irene (single 1953)
TTITLE19=Go cry your heart out (single 1953)
TTITLE20=Breakin' the rules (single 1954)
TTITLE21=A fooler, a faker (single 1954)
TTITLE22=Jersey bounce (single 1954)
TTITLE23=Sunrise serenade (single 1954)
EXTD=YEAR: 2014
EXTT0=
EXTT1=
EXTT2=
EXTT3=
EXTT4=
EXTT5=
EXTT6=
EXTT7=
EXTT8=
EXTT9=
EXTT10=
EXTT11=
EXTT12=
EXTT13=
EXTT14=
EXTT15=
EXTT16=
EXTT17=
EXTT18=
EXTT19=
EXTT20=
EXTT21=
EXTT22=
EXTT23=
PLAYORDER=
